REM DIRINDEX 1\2,1\3
REM DIRNAME folder01,folder02,folder03
TITLE ""
FILE "3221-3240.mp3" MP3
  TRACK 01 AUDIO
    TITLE "0:"
    INDEX 01 00:00:00
  TRACK 02 AUDIO
    TITLE "2:cjc039_5441"
    INDEX 01 00:00:23
  TRACK 03 AUDIO
    TITLE "0:"
    INDEX 01 00:01:26
  TRACK 04 AUDIO
    TITLE "3:cjc039_5442"
    INDEX 01 00:02:02
  TRACK 05 AUDIO
    TITLE "0:"
    INDEX 01 00:05:44
  TRACK 06 AUDIO
    TITLE "2:cjc039_5443"
    INDEX 01 00:07:19
  TRACK 07 AUDIO
    TITLE "0:"
    INDEX 01 00:08:28
  TRACK 08 AUDIO
    TITLE "3:cjc039_5444"
    INDEX 01 00:09:02
  TRACK 09 AUDIO
    TITLE "0:"
    INDEX 01 00:12:54
  TRACK 10 AUDIO
    TITLE "2:cjc039_5445"
    INDEX 01 00:14:21
  TRACK 11 AUDIO
    TITLE "0:"
    INDEX 01 00:15:38
  TRACK 12 AUDIO
    TITLE "3:cjc039_5446"
    INDEX 01 00:16:14
  TRACK 13 AUDIO
    TITLE "0:"
    INDEX 01 00:19:65
  TRACK 14 AUDIO
    TITLE "2:cjc039_5447"
    INDEX 01 00:21:37
  TRACK 15 AUDIO
    TITLE "0:"
    INDEX 01 00:22:62
  TRACK 16 AUDIO
    TITLE "3:cjc039_5448"
    INDEX 01 00:23:32
  TRACK 17 AUDIO
    TITLE "0:"
    INDEX 01 00:27:41
  TRACK 18 AUDIO
    TITLE "2:cjc039_5449"
    INDEX 01 00:29:17
  TRACK 19 AUDIO
    TITLE "0:"
    INDEX 01 00:30:30
  TRACK 20 AUDIO
    TITLE "3:cjc039_5450"
    INDEX 01 00:31:10
  TRACK 21 AUDIO
    TITLE "0:"
    INDEX 01 00:34:59
  TRACK 22 AUDIO
    TITLE "2:cjc039_5451"
    INDEX 01 00:36:35
  TRACK 23 AUDIO
    TITLE "0:"
    INDEX 01 00:37:61
  TRACK 24 AUDIO
    TITLE "3:cjc039_5452"
    INDEX 01 00:38:39
  TRACK 25 AUDIO
    TITLE "0:"
    INDEX 01 00:43:05
  TRACK 26 AUDIO
    TITLE "2:cjc039_5453"
    INDEX 01 00:44:46
  TRACK 27 AUDIO
    TITLE "0:"
    INDEX 01 00:45:53
  TRACK 28 AUDIO
    TITLE "3:cjc039_5454"
    INDEX 01 00:46:29
  TRACK 29 AUDIO
    TITLE "0:"
    INDEX 01 00:50:11
  TRACK 30 AUDIO
    TITLE "2:cjc039_5455"
    INDEX 01 00:51:60
  TRACK 31 AUDIO
    TITLE "0:"
    INDEX 01 00:53:06
  TRACK 32 AUDIO
    TITLE "3:cjc039_5456"
    INDEX 01 00:53:57
  TRACK 33 AUDIO
    TITLE "0:"
    INDEX 01 00:58:07
  TRACK 34 AUDIO
    TITLE "2:cjc039_5457"
    INDEX 01 00:59:59
  TRACK 35 AUDIO
    TITLE "0:"
    INDEX 01 01:00:51
  TRACK 36 AUDIO
    TITLE "3:cjc039_5458"
    INDEX 01 01:01:31
  TRACK 37 AUDIO
    TITLE "0:"
    INDEX 01 01:04:68
  TRACK 38 AUDIO
    TITLE "2:cjc039_5459"
    INDEX 01 01:06:43
  TRACK 39 AUDIO
    TITLE "0:"
    INDEX 01 01:08:13
  TRACK 40 AUDIO
    TITLE "3:cjc039_5460"
    INDEX 01 01:08:64
  TRACK 41 AUDIO
    TITLE "0:"
    INDEX 01 01:13:12
  TRACK 42 AUDIO
    TITLE "2:cjc039_5461"
    INDEX 01 01:14:61
  TRACK 43 AUDIO
    TITLE "0:"
    INDEX 01 01:15:72
  TRACK 44 AUDIO
    TITLE "3:cjc039_5462"
    INDEX 01 01:16:50
  TRACK 45 AUDIO
    TITLE "0:"
    INDEX 01 01:20:18
  TRACK 46 AUDIO
    TITLE "2:cjc039_5463"
    INDEX 01 01:21:65
  TRACK 47 AUDIO
    TITLE "0:"
    INDEX 01 01:23:09
  TRACK 48 AUDIO
    TITLE "3:cjc039_5464"
    INDEX 01 01:23:60
  TRACK 49 AUDIO
    TITLE "0:"
    INDEX 01 01:27:50
  TRACK 50 AUDIO
    TITLE "2:cjc039_5465"
    INDEX 01 01:29:25
  TRACK 51 AUDIO
    TITLE "0:"
    INDEX 01 01:30:40
  TRACK 52 AUDIO
    TITLE "3:cjc039_5466"
    INDEX 01 01:31:18
  TRACK 53 AUDIO
    TITLE "0:"
    INDEX 01 01:35:00
  TRACK 54 AUDIO
    TITLE "2:cjc039_5467"
    INDEX 01 01:36:45
  TRACK 55 AUDIO
    TITLE "0:"
    INDEX 01 01:38:08
  TRACK 56 AUDIO
    TITLE "3:cjc039_5468"
    INDEX 01 01:38:63
  TRACK 57 AUDIO
    TITLE "0:"
    INDEX 01 01:42:71
  TRACK 58 AUDIO
    TITLE "2:cjc039_5469"
    INDEX 01 01:44:48
  TRACK 59 AUDIO
    TITLE "0:"
    INDEX 01 01:45:49
  TRACK 60 AUDIO
    TITLE "3:cjc039_5470"
    INDEX 01 01:46:27
  TRACK 61 AUDIO
    TITLE "0:"
    INDEX 01 01:49:18
  TRACK 62 AUDIO
    TITLE "2:cjc039_5471"
    INDEX 01 01:50:72
  TRACK 63 AUDIO
    TITLE "0:"
    INDEX 01 01:52:14
  TRACK 64 AUDIO
    TITLE "3:cjc039_5472"
    INDEX 01 01:52:63
  TRACK 65 AUDIO
    TITLE "0:"
    INDEX 01 01:56:20
  TRACK 66 AUDIO
    TITLE "2:cjc039_5473"
    INDEX 01 01:58:01
  TRACK 67 AUDIO
    TITLE "0:"
    INDEX 01 01:58:74
  TRACK 68 AUDIO
    TITLE "3:cjc039_5474"
    INDEX 01 01:59:50
  TRACK 69 AUDIO
    TITLE "0:"
    INDEX 01 02:03:12
  TRACK 70 AUDIO
    TITLE "2:cjc039_5475"
    INDEX 01 02:04:62
  TRACK 71 AUDIO
    TITLE "0:"
    INDEX 01 02:06:03
  TRACK 72 AUDIO
    TITLE "3:cjc039_5476"
    INDEX 01 02:06:55
  TRACK 73 AUDIO
    TITLE "0:"
    INDEX 01 02:11:08
  TRACK 74 AUDIO
    TITLE "2:cjc039_5477"
    INDEX 01 02:12:64
  TRACK 75 AUDIO
    TITLE "0:"
    INDEX 01 02:13:71
  TRACK 76 AUDIO
    TITLE "3:cjc039_5478"
    INDEX 01 02:14:49
  TRACK 77 AUDIO
    TITLE "0:"
    INDEX 01 02:18:63
  TRACK 78 AUDIO
    TITLE "2:cjc039_5479"
    INDEX 01 02:20:38
  TRACK 79 AUDIO
    TITLE "0:"
    INDEX 01 02:21:69
  TRACK 80 AUDIO
    TITLE "3:cjc039_5480"
    INDEX 01 02:22:49
  TRACK 81 AUDIO
    TITLE "0:"
    INDEX 01 02:28:59
